<svg xmlns="http://www.w3.org/2000/svg" xmlns:xlink="http://www.w3.org/1999/xlink" width="451pt" height="968" viewBox="0 0 450.77 726"><g id="graph0" class="graph" transform="scale(1 1) rotate(0) translate(4 722)"><title>G</title><polygon fill="#fff" stroke="none" points="-4 4 -4 -722 446.77 -722 446.77 4 -4 4"/><g id="node1" class="node"><title>mt</title><polygon fill="none" stroke="#000" points="269.02 -718 169.02 -718 169.02 -682 269.02 -682 269.02 -718"/><text x="177.02" y="-695.2" font-family="sans-serif" font-size="14" font-weight="bold" text-anchor="start">MethodTable</text></g><g id="node3" class="node"><title>f_m</title><polygon fill="none" stroke="#000" points="150.39 -558 85.64 -558 85.64 -522 150.39 -522 150.39 -558"/><text x="93.64" y="-541.7" font-family="sans-serif" font-size="14" font-weight="bold" text-anchor="start">Method</text><text x="111.64" y="-527.7" font-family="sans-serif" font-size="14" text-anchor="start">f()</text></g><g id="edge4" class="edge"><title>mt-&gt;f_m</title><path fill="none" stroke="#000" d="M208.02,-681.79C190.41,-654.25 155.77,-600.06 134.98,-567.53"/><polygon fill="#000" stroke="#000" points="138.16 -566 129.82 -559.46 132.26 -569.77 138.16 -566"/></g><g id="node4" class="node"><title>g_m</title><polygon fill="none" stroke="#000" points="387.39 -645 322.64 -645 322.64 -609 387.39 -609 387.39 -645"/><text x="330.64" y="-628.7" font-family="sans-serif" font-size="14" font-weight="bold" text-anchor="start">Method</text><text x="346.77" y="-614.7" font-family="sans-serif" font-size="14" text-anchor="start">g()</text></g><g id="edge5" class="edge"><title>mt-&gt;g_m</title><path fill="none" stroke="#000" d="M252.29,-681.63C270.42,-672.17 293.05,-660.35 312.46,-650.22"/><polygon fill="#000" stroke="#000" points="313.98 -653.38 321.22 -645.64 310.74 -647.17 313.98 -653.38"/></g><g id="node2" class="node"><title>m_mod</title><polygon fill="none" stroke="#000" points="368.02 -297 304.02 -297 304.02 -261 368.02 -261 368.02 -297"/><text x="312.02" y="-280.7" font-family="sans-serif" font-size="14" font-weight="bold" text-anchor="start">Module</text><text x="330.02" y="-266.7" font-family="sans-serif" font-size="14" text-anchor="start">M</text></g><g id="node11" class="node"><title>c2_bind</title><polygon fill="none" stroke="#000" points="165.14 -210 98.89 -210 98.89 -174 165.14 -174 165.14 -210"/><text x="106.89" y="-193.7" font-family="sans-serif" font-size="14" font-weight="bold" text-anchor="start">Binding</text><text x="117.02" y="-179.7" font-family="sans-serif" font-size="14" text-anchor="start">M.c2</text></g><g id="edge1" class="edge"><title>m_mod-&gt;c2_bind</title><path fill="none" stroke="#000" d="M316.16,-260.51C303.02,-249.75 284.95,-236.45 267.02,-228 238.27,-214.45 203.52,-205.6 176.47,-200.18"/><polygon fill="#000" stroke="#000" points="177.36 -196.79 166.88 -198.35 176.04 -203.67 177.36 -196.79"/><text x="316.41" y="-229.7" font-family="sans-serif" font-size="14" text-anchor="middle">bindings</text></g><g id="node5" class="node"><title>f_mi</title><polygon fill="none" stroke="#000" points="177.77 -471 58.27 -471 58.27 -435 177.77 -435 177.77 -471"/><text x="66.27" y="-454.7" font-family="sans-serif" font-size="14" font-weight="bold" text-anchor="start">MethodInstance</text><text x="111.64" y="-440.7" font-family="sans-serif" font-size="14" text-anchor="start">f()</text></g><g id="edge6" class="edge"><title>f_m-&gt;f_mi</title><path fill="none" stroke="#000" d="M118.02,-521.8C118.02,-510.58 118.02,-495.67 118.02,-482.69"/><polygon fill="#000" stroke="#000" points="121.52 -482.98 118.02 -472.98 114.52 -482.98 121.52 -482.98"/><text x="161.89" y="-490.7" font-family="sans-serif" font-size="14" text-anchor="middle">specializations</text></g><g id="node6" class="node"><title>g_mi</title><polygon fill="none" stroke="#000" points="414.77 -558 295.27 -558 295.27 -522 414.77 -522 414.77 -558"/><text x="303.27" y="-541.7" font-family="sans-serif" font-size="14" font-weight="bold" text-anchor="start">MethodInstance</text><text x="346.77" y="-527.7" font-family="sans-serif" font-size="14" text-anchor="start">g()</text></g><g id="edge7" class="edge"><title>g_m-&gt;g_mi</title><path fill="none" stroke="#000" d="M355.02,-608.8C355.02,-597.58 355.02,-582.67 355.02,-569.69"/><polygon fill="#000" stroke="#000" points="358.52 -569.98 355.02 -559.98 351.52 -569.98 358.52 -569.98"/><text x="398.89" y="-577.7" font-family="sans-serif" font-size="14" text-anchor="middle">specializations</text></g><g id="node8" class="node"><title>f_ci2</title><polygon fill="none" stroke="#000" points="170.27 -384 65.77 -384 65.77 -348 170.27 -348 170.27 -384"/><text x="73.77" y="-367.7" font-family="sans-serif" font-size="14" font-weight="bold" text-anchor="start">CodeInstance</text><text x="83.52" y="-353.7" font-family="sans-serif" font-size="14" text-anchor="start">f() for [2, ∞)</text></g><g id="edge8" class="edge"><title>f_mi-&gt;f_ci2</title><path fill="none" stroke="#000" d="M118.02,-434.8C118.02,-423.58 118.02,-408.67 118.02,-395.69"/><polygon fill="#000" stroke="#000" points="121.52 -395.98 118.02 -385.98 114.52 -395.98 121.52 -395.98"/><text x="136.02" y="-403.7" font-family="sans-serif" font-size="14" text-anchor="middle">cache</text></g><g id="node9" class="node"><title>g_ci1</title><polygon fill="none" stroke="#000" points="407.27 -384 302.77 -384 302.77 -348 407.27 -348 407.27 -384"/><text x="310.77" y="-367.7" font-family="sans-serif" font-size="14" font-weight="bold" text-anchor="start">CodeInstance</text><text x="320.14" y="-353.7" font-family="sans-serif" font-size="14" text-anchor="start">g() for [1, 1]</text></g><g id="edge10" class="edge"><title>f_mi-&gt;g_ci1</title><path fill="none" stroke="#000" stroke-dasharray="1 5" d="M136.7,-434.6C150.68,-421.92 168.86,-406.26 177.77,-402 213.27,-385.03 256.53,-376.29 291.42,-371.79"/><polygon fill="#000" stroke="#000" points="291.43 -375.31 300.94 -370.65 290.59 -368.36 291.43 -375.31"/><text x="217.89" y="-403.7" font-family="sans-serif" font-size="14" text-anchor="middle">backedges[1]</text></g><g id="node10" class="node"><title>g_ci2</title><polygon fill="none" stroke="#000" points="407.27 -471 302.77 -471 302.77 -435 407.27 -435 407.27 -471"/><text x="310.77" y="-454.7" font-family="sans-serif" font-size="14" font-weight="bold" text-anchor="start">CodeInstance</text><text x="318.64" y="-440.7" font-family="sans-serif" font-size="14" text-anchor="start">g() for [2, ∞)</text></g><g id="edge11" class="edge"><title>f_mi-&gt;g_ci2</title><path fill="none" stroke="#000" stroke-dasharray="1 5" d="M178.13,-453C212.78,-453 256.31,-453 291.51,-453"/><polygon fill="#000" stroke="#000" points="291.12 -456.5 301.12 -453 291.11 -449.5 291.12 -456.5"/><text x="240.27" y="-457.7" font-family="sans-serif" font-size="14" text-anchor="middle">backedges[2]</text></g><g id="edge9" class="edge"><title>g_mi-&gt;g_ci2</title><path fill="none" stroke="#000" d="M355.02,-521.8C355.02,-510.58 355.02,-495.67 355.02,-482.69"/><polygon fill="#000" stroke="#000" points="358.52 -482.98 355.02 -472.98 351.52 -482.98 358.52 -482.98"/><text x="373.02" y="-490.7" font-family="sans-serif" font-size="14" text-anchor="middle">cache</text></g><g id="node7" class="node"><title>f_ci1</title><polygon fill="none" stroke="#000" points="170.27 -297 65.77 -297 65.77 -261 170.27 -261 170.27 -297"/><text x="73.77" y="-280.7" font-family="sans-serif" font-size="14" font-weight="bold" text-anchor="start">CodeInstance</text><text x="85.02" y="-266.7" font-family="sans-serif" font-size="14" text-anchor="start">f() for [1, 1]</text></g><g id="edge16" class="edge"><title>f_ci1-&gt;c2_bind</title><path fill="none" stroke="#000" stroke-dasharray="5 2" d="M120.85,-260.8C122.7,-249.58 125.16,-234.67 127.29,-221.69"/><polygon fill="#000" stroke="#000" points="130.73 -222.4 128.9 -211.96 123.82 -221.26 130.73 -222.4"/><text x="151.73" y="-229.7" font-family="sans-serif" font-size="14" text-anchor="middle">edges[1]</text></g><g id="edge12" class="edge"><title>f_ci2-&gt;f_ci1</title><path fill="none" stroke="#000" d="M118.02,-347.8C118.02,-336.58 118.02,-321.67 118.02,-308.69"/><polygon fill="#000" stroke="#000" points="121.52 -308.98 118.02 -298.98 114.52 -308.98 121.52 -308.98"/><text x="130.77" y="-316.7" font-family="sans-serif" font-size="14" text-anchor="middle">next</text></g><g id="edge17" class="edge"><title>f_ci2-&gt;c2_bind</title><path fill="none" stroke="#000" stroke-dasharray="5 2" d="M66.91,-347.64C43.74,-336.91 18.59,-320.59 5.27,-297 -2.6,-283.07 -0.07,-276.08 5.27,-261 17.32,-227 56.14,-209.72 87.67,-201.11"/><polygon fill="#000" stroke="#000" points="88.14 -204.6 97 -198.78 86.45 -197.81 88.14 -204.6"/><text x="31.14" y="-273.2" font-family="sans-serif" font-size="14" text-anchor="middle">edges[1]</text></g><g id="edge14" class="edge"><title>g_ci1-&gt;f_ci1</title><path fill="none" stroke="#000" stroke-dasharray="5 2" d="M306.49,-347.59C269.02,-334.16 217.02,-315.51 177.13,-301.2"/><polygon fill="#000" stroke="#000" points="178.51 -297.98 167.91 -297.89 176.14 -304.56 178.51 -297.98"/><text x="276.58" y="-316.7" font-family="sans-serif" font-size="14" text-anchor="middle">edges[1]</text></g><g id="edge15" class="edge"><title>g_ci2-&gt;f_ci2</title><path fill="none" stroke="#000" stroke-dasharray="5 2" d="M325.69,-434.62C306.86,-424.04 281.6,-410.89 258.02,-402 233.73,-392.85 206.18,-385.37 181.98,-379.71"/><polygon fill="#000" stroke="#000" points="182.76 -376.3 172.23 -377.5 181.21 -383.13 182.76 -376.3"/><text x="316.85" y="-403.7" font-family="sans-serif" font-size="14" text-anchor="middle">edges[1]</text></g><g id="edge13" class="edge"><title>g_ci2-&gt;g_ci1</title><path fill="none" stroke="#000" d="M355.02,-434.8C355.02,-423.58 355.02,-408.67 355.02,-395.69"/><polygon fill="#000" stroke="#000" points="358.52 -395.98 355.02 -385.98 351.52 -395.98 358.52 -395.98"/><text x="367.77" y="-403.7" font-family="sans-serif" font-size="14" text-anchor="middle">next</text></g><g id="edge18" class="edge"><title>c2_bind-&gt;f_ci1</title><path fill="none" stroke="#000" stroke-dasharray="1 5" d="M98.48,-196.31C77.84,-200.28 52.91,-208.97 39.77,-228 30.83,-240.95 40.09,-251.3 54.96,-259.14"/><polygon fill="#000" stroke="#000" points="53.49 -262.31 64.04 -263.3 56.41 -255.95 53.49 -262.31"/><text x="79.89" y="-229.7" font-family="sans-serif" font-size="14" text-anchor="middle">backedges[1]</text></g><g id="edge19" class="edge"><title>c2_bind-&gt;f_ci2</title><path fill="none" stroke="#000" stroke-dasharray="1 5" d="M165.64,-209.79C172.23,-214.71 178.25,-220.76 182.02,-228 196.2,-255.23 190.78,-268.65 179.02,-297 172.25,-313.31 159.84,-328.29 147.97,-340.01"/><polygon fill="#000" stroke="#000" points="145.9 -337.15 141.01 -346.55 150.7 -342.25 145.9 -337.15"/><text x="230.44" y="-273.2" font-family="sans-serif" font-size="14" text-anchor="middle">backedges[2]</text></g><g id="node13" class="node"><title>c2_bpart2</title><polygon fill="none" stroke="#000" points="199.27 -123 64.77 -123 64.77 -87 199.27 -87 199.27 -123"/><text x="79.52" y="-106.7" font-family="sans-serif" font-size="14" font-weight="bold" text-anchor="start">BindingPartition</text><text x="72.77" y="-92.7" font-family="sans-serif" font-size="14" text-anchor="start">constant 3 for [2, ∞)</text></g><g id="edge2" class="edge"><title>c2_bind-&gt;c2_bpart2</title><path fill="none" stroke="#000" d="M132.02,-173.8C132.02,-162.58 132.02,-147.67 132.02,-134.69"/><polygon fill="#000" stroke="#000" points="135.52 -134.98 132.02 -124.98 128.52 -134.98 135.52 -134.98"/><text x="159.39" y="-142.7" font-family="sans-serif" font-size="14" text-anchor="middle">partitions</text></g><g id="node12" class="node"><title>c2_bpart1</title><polygon fill="none" stroke="#000" points="197.77 -36 66.27 -36 66.27 0 197.77 0 197.77 -36"/><text x="79.52" y="-19.7" font-family="sans-serif" font-size="14" font-weight="bold" text-anchor="start">BindingPartition</text><text x="74.27" y="-5.7" font-family="sans-serif" font-size="14" text-anchor="start">constant 2 for [1, 1]</text></g><g id="edge3" class="edge"><title>c2_bpart2-&gt;c2_bpart1</title><path fill="none" stroke="#000" d="M132.02,-86.8C132.02,-75.58 132.02,-60.67 132.02,-47.69"/><polygon fill="#000" stroke="#000" points="135.52 -47.98 132.02 -37.98 128.52 -47.98 135.52 -47.98"/><text x="144.77" y="-55.7" font-family="sans-serif" font-size="14" text-anchor="middle">next</text></g></g></svg>